<svg xmlns="http://www.w3.org/2000/svg" width="37" height="37" viewBox="0 0 37 37" fill="none"><path d="M0.57022 9.00462L12.3885 15.3682L20.3224 7.43426L7.72875 4.47052C4.85337 3.79332 1.82047 4.99021 0.182075 7.44781C0.0635146 7.6265 0 7.83539 0 8.04993C0 8.44795 0.219055 8.81521 0.57022 9.00462Z" fill="#003876"></path><path d="M29.5671 16.6775L21.6337 24.6115L27.9968 36.4297C28.1862 36.7809 28.5532 36.9999 28.9515 36.9999C29.166 36.9999 29.3749 36.9364 29.5533 36.8178C32.0112 35.1795 33.2078 32.1466 32.5306 29.2712L29.5671 16.6775Z" fill="#003876"></path><path d="M33.5939 0H33.5936C31.8067 0 30.1268 0.695838 28.8636 1.95936L7.60143 23.2212H3.40495C1.52746 23.2212 0 24.7487 0 26.6276C0 27.0081 0.199859 27.361 0.526466 27.5569L6.09938 30.9009L9.44308 36.4738C9.63898 36.8001 9.99184 37 10.3726 37C12.2753 37 13.7787 35.455 13.7787 33.5939V29.3988L35.0406 8.13665C36.3041 6.87285 37 5.19296 37 3.40495C37 1.52746 35.4725 0 33.5939 0Z" fill="#003876"></path></svg>